<?xml version="1.0" encoding="UTF-8" standalone="no"?>
<!DOCTYPE svg PUBLIC "-//W3C//DTD SVG 1.1//EN" "http://www.w3.org/Graphics/SVG/1.1/DTD/svg11.dtd">
<svg width="100%" height="100%" viewBox="0 0 348 348" version="1.1" xmlns="http://www.w3.org/2000/svg" xmlns:xlink="http://www.w3.org/1999/xlink" xml:space="preserve" xmlns:serif="http://www.serif.com/" style="fill-rule:evenodd;clip-rule:evenodd;stroke-linejoin:round;stroke-miterlimit:2;">
    <g transform="matrix(1.521471,0,0,1.604064,-228.353057,-426.844553)">
        <path d="M320.895,266.102C352.882,266.102 378.813,290.698 378.813,321.038L378.813,428.115C378.813,458.455 352.882,483.051 320.895,483.051L208.005,483.051C176.018,483.051 150.087,458.455 150.087,428.115L150.087,321.038C150.087,290.698 176.018,266.102 208.005,266.102L320.895,266.102Z"/>
    </g>
    <g transform="matrix(1.184478,0,0,1.184478,-2825.046487,-1915.096975)">
        <g transform="matrix(1.626979,0,0,1.626979,-1698.934835,-859.333553)">
            <path d="M2607.039,1544.503L2609.207,1555.056C2613.402,1555.698 2617.514,1556.8 2621.468,1558.342L2628.622,1550.286C2632.625,1552.106 2636.443,1554.31 2640.021,1556.867L2636.621,1567.09C2639.933,1569.744 2642.943,1572.754 2645.597,1576.066L2655.82,1572.667C2658.377,1576.245 2660.581,1580.062 2662.401,1584.065L2654.346,1591.219C2655.887,1595.174 2656.989,1599.285 2657.631,1603.481L2668.185,1605.648C2668.61,1610.025 2668.61,1614.433 2668.185,1618.81L2657.631,1620.978C2656.989,1625.173 2655.887,1629.285 2654.346,1633.239L2662.401,1640.393C2660.581,1644.397 2658.377,1648.214 2655.82,1651.792L2645.597,1648.393C2642.943,1651.705 2639.933,1654.715 2636.621,1657.369L2640.021,1667.592C2636.443,1670.149 2632.625,1672.353 2628.622,1674.173L2621.468,1666.117C2617.514,1667.659 2613.402,1668.761 2609.207,1669.403L2607.039,1679.956C2602.662,1680.381 2598.254,1680.381 2593.877,1679.956L2591.709,1669.403C2587.514,1668.761 2583.402,1667.659 2579.448,1666.117L2572.294,1674.173C2568.291,1672.353 2564.473,1670.149 2560.895,1667.592L2564.295,1657.369C2560.982,1654.715 2557.972,1651.705 2555.319,1648.393L2545.095,1651.792C2542.539,1648.214 2540.335,1644.397 2538.514,1640.393L2546.57,1633.239C2545.028,1629.285 2543.927,1625.173 2543.285,1620.978L2532.731,1618.81C2532.306,1614.433 2532.306,1610.025 2532.731,1605.648L2543.285,1603.481C2543.927,1599.285 2545.028,1595.174 2546.57,1591.219L2538.514,1584.065C2540.335,1580.062 2542.539,1576.245 2545.095,1572.667L2555.319,1576.066C2557.972,1572.754 2560.982,1569.744 2564.295,1567.09L2560.895,1556.867C2564.473,1554.31 2568.291,1552.106 2572.294,1550.286L2579.448,1558.342C2583.402,1556.8 2587.514,1555.698 2591.709,1555.056L2593.877,1544.503C2598.254,1544.077 2602.662,1544.077 2607.039,1544.503ZM2602.498,1658.824C2602.608,1658.819 2602.714,1658.86 2602.793,1658.935C2602.872,1659.011 2602.916,1659.116 2602.916,1659.225C2602.908,1661.035 2602.879,1668.068 2602.879,1668.068C2602.875,1669.163 2603.517,1670.157 2604.516,1670.604C2605.515,1671.051 2606.684,1670.867 2607.497,1670.134L2626.816,1652.72C2627.397,1652.196 2627.729,1651.451 2627.73,1650.668L2627.73,1650.427C2627.73,1650.195 2627.841,1649.977 2628.028,1649.84C2639.588,1641.348 2647.097,1627.659 2647.097,1612.229C2647.097,1599.448 2641.944,1587.86 2633.604,1579.432C2633.44,1579.267 2633.416,1579.009 2633.546,1578.817C2633.596,1578.744 2633.633,1578.688 2633.633,1578.688C2633.96,1578.205 2634.125,1577.631 2634.106,1577.048L2633.994,1573.614C2633.947,1572.191 2632.828,1571.036 2631.407,1570.945L2620.817,1570.264C2614.664,1567.27 2607.755,1565.591 2600.458,1565.591C2593.127,1565.591 2586.188,1567.286 2580.014,1570.305L2570.069,1570.945C2568.648,1571.036 2567.529,1572.191 2567.482,1573.614L2567.37,1577.048C2567.351,1577.631 2567.42,1578.063 2567.731,1578.523C2567.731,1578.523 2567.734,1578.528 2567.74,1578.536C2567.851,1578.699 2567.829,1578.918 2567.689,1579.056C2559.127,1587.513 2553.819,1599.256 2553.819,1612.229C2553.819,1637.97 2574.717,1658.868 2600.458,1658.868C2601.142,1658.868 2601.822,1658.854 2602.498,1658.824Z" style="fill:rgb(235,235,235);"/>
        </g>
        <g transform="matrix(1,0,0,1,52.866787,13.99869)">
            <g transform="matrix(0.989677,0,0,1.175824,25.284695,-306.568358)">
                <path d="M2439.955,1732.148L2439.934,1713.191L2429.548,1700.261L2429.733,1695.51L2471.145,1693.268L2471.334,1732.148L2488.385,1732.148L2488.574,1693.268L2529.986,1695.51L2530.171,1700.261L2519.785,1713.191L2519.685,1802L2487.927,1826.095L2488.303,1748.816L2471.415,1748.816L2471.428,1751.33L2471.218,1751.33L2471.449,1801.621L2439.652,1784.22L2439.652,1732.148L2439.955,1732.148Z" style="fill:rgb(235,235,235);"/>
            </g>
        </g>
    </g>
</svg>
